<?xml version="1.0" encoding="UTF-8"?>
<svg width="19px" height="19px" viewBox="0 0 19 19" version="1.1" xmlns="http://www.w3.org/2000/svg" xmlns:xlink="http://www.w3.org/1999/xlink">
    <!-- Generator: Sketch 52.2 (67145) - http://www.bohemiancoding.com/sketch -->
    <title>Shape</title>
    <desc>Created with Sketch.</desc>
    <g id="Page-1" stroke="none" stroke-width="1" fill="none" fill-rule="evenodd">
        <g id="Desktop-HD" transform="translate(-117.000000, -620.000000)" fill="#FFFFFF" fill-rule="nonzero">
            <g id="Group-2" transform="translate(99.000000, 601.000000)">
                <g id="Group" transform="translate(18.113208, 18.113208)">
                    <path d="M15.4605966,3.7846864 C13.7501843,2.07413583 11.4756688,1.13207547 9.05660377,1.13207547 C6.6375387,1.13207547 4.36302329,2.07413583 2.65261093,3.7846864 C0.942060354,5.49509876 0,7.76961417 0,10.1886792 C0,12.6077443 0.942060354,14.8822597 2.65261093,16.5926721 C4.36302329,18.3032227 6.6375387,19.245283 9.05660377,19.245283 C10.2662054,19.245283 11.4396005,19.0096643 12.5242759,18.5603995 C13.6089512,18.1111346 14.6051832,17.4480856 15.4605966,16.5926721 C17.1711472,14.8822597 18.1132075,12.6077443 18.1132075,10.1886792 C18.1132075,7.76961417 17.1711472,5.49509876 15.4605966,3.7846864 Z M12.1642836,12.5459721 C13.5272793,11.3488079 15.2260834,10.662266 17.0383439,10.5767246 C16.9544609,12.3276275 16.2988742,14.0558667 15.0732422,15.4549307 L12.1642836,12.5459721 Z M17.0196879,9.51471294 L17.0196879,9.51526571 C16.0147498,9.55976377 15.0335809,9.76857311 14.0952517,10.1396208 C13.106344,10.5305682 12.206156,11.0863797 11.4125147,11.7940651 L9.80699073,10.1886792 L15.0732422,4.92242777 C16.2321271,6.24520932 16.8813569,7.86220334 17.0196879,9.51471294 Z M9.00754532,15.2273272 C8.63663583,16.1655181 8.42782649,17.1469634 8.38332842,18.1517633 C8.38305205,18.1517633 8.38291383,18.1517633 8.38263746,18.1517633 C6.73012787,18.0134324 5.11313384,17.3642025 3.7903523,16.2053176 L9.05660377,10.9390662 L10.6619896,12.5445902 C9.95430425,13.3382315 9.39849276,14.2384194 9.00754532,15.2273272 Z M5.94878575,7.83138637 C4.58592828,9.02827426 2.88657134,9.71412517 1.07486363,9.80035748 C1.15874667,8.0494546 1.81419517,6.32149175 3.03996538,4.92242777 L5.94878575,7.83138637 Z M3.7903523,4.17204085 C5.18941627,2.94599427 6.91779371,2.29040759 8.66855837,2.20652455 C8.58287883,4.0190614 7.89647515,5.71800375 6.6993109,7.08086123 L3.7903523,4.17204085 Z M9.10566223,5.14989311 C9.47657172,4.21170216 9.68538106,3.23011868 9.72987913,2.22518059 L9.73084649,2.22518059 C11.3829415,2.36392613 13.0000737,3.01274137 14.3228552,4.17204085 L9.05660377,9.4381541 L7.45121795,7.83276828 C8.15876512,7.0389888 8.71457657,6.13893906 9.10566223,5.14989311 Z M1.09351967,10.8626456 C1.09351967,10.8625074 1.09351967,10.8625074 1.09351967,10.8625074 C2.09831958,10.8178711 3.07962669,10.6086472 4.01781764,10.2377377 C5.00686358,9.84679026 5.90691333,9.29097877 6.70069281,8.58329342 L8.30607863,10.1886792 L3.03996538,15.4549307 C1.8809423,14.1321492 1.23185066,12.5150169 1.09351967,10.8626456 Z M9.44464917,18.1705576 C9.53032871,16.3580207 10.2167324,14.6593547 11.4138967,13.2963591 L14.3228552,16.2053176 C12.9237913,17.4310879 11.1956902,18.0865363 9.44464917,18.1705576 Z" id="Shape"></path>
                </g>
            </g>
        </g>
    </g>
</svg>