<?xml version="1.0" encoding="UTF-8"?>
<svg width="15px" height="14px" viewBox="0 0 15 14" version="1.1" xmlns="http://www.w3.org/2000/svg" xmlns:xlink="http://www.w3.org/1999/xlink">
    <!-- Generator: Sketch 52.2 (67145) - http://www.bohemiancoding.com/sketch -->
    <title></title>
    <desc>Created with Sketch.</desc>
    <g id="Page-1" stroke="none" stroke-width="1" fill="none" fill-rule="evenodd">
        <g id="Desktop-Copy" transform="translate(-744.000000, -2809.000000)" fill="#999999">
            <g id="Group-19" transform="translate(546.500000, 2808.000000)">
                <g id="Group-15" transform="translate(198.000000, 0.000000)">
                    <path d="M2.03125,3.125 C3.40625687,1.70832625 5.06249031,1 7,1 C8.93750969,1 10.5885348,1.70311797 11.953125,3.109375 C13.3177152,4.51563203 14,6.20832344 14,8.1875 C14,9.75000781 13.5520878,11.1562437 12.65625,12.40625 C11.7604122,13.6562563 10.6145903,14.5208309 9.21875,15 L9.09375,15 C8.84374875,15 8.71875,14.8750013 8.71875,14.625 C8.71875,14.6041666 8.72395828,14.3697939 8.734375,13.921875 C8.74479172,13.4739561 8.75,13.0625019 8.75,12.6875 C8.75,12.0833303 8.583335,11.6354181 8.25,11.34375 C9.20833813,11.2187494 9.98437203,10.9114608 10.578125,10.421875 C11.171878,9.93228922 11.46875,9.06250625 11.46875,7.8125 C11.46875,7.06249625 11.2291691,6.41666938 10.75,5.875 C10.9583344,5.27083031 10.9375013,4.63542 10.6875,3.96875 L10.53125,3.96875 C10.0520809,3.96875 9.45833688,4.2187475 8.75,4.71875 C8.14583031,4.5520825 7.56250281,4.46875 7,4.46875 C6.43749719,4.46875 5.85416969,4.5520825 5.25,4.71875 C4.54166313,4.2187475 3.94791906,3.96875 3.46875,3.96875 L3.3125,3.96875 C3.06249875,4.63542 3.04166562,5.27083031 3.25,5.875 C2.77083094,6.41666938 2.53125,7.06249625 2.53125,7.8125 C2.53125,9.06250625 2.82291375,9.93228922 3.40625,10.421875 C3.98958625,10.9114608 4.76041187,11.2187494 5.71875,11.34375 C5.48958219,11.5729178 5.34375031,11.8958313 5.28125,12.3125 C5.03124875,12.4375006 4.76041812,12.5 4.46875,12.5 C3.94791406,12.5 3.54166813,12.2395859 3.25,11.71875 C2.97916531,11.2604144 2.61458563,11.0104169 2.15625,10.96875 C1.71874781,10.96875 1.70833125,11.1145819 2.125,11.40625 C2.43750156,11.5729175 2.69791563,11.9270806 2.90625,12.46875 C2.92708344,12.5520837 2.96874969,12.6510411 3.03125,12.765625 C3.09375031,12.8802089 3.26562359,13.0312491 3.546875,13.21875 C3.82812641,13.4062509 4.16666469,13.5 4.5625,13.5 C4.85416813,13.5 5.0833325,13.4791669 5.25,13.4375 L5.25,14.65625 C5.25,14.8854178 5.13541781,15 4.90625,15 L4.78125,15 C3.36457625,14.5208309 2.21354609,13.6614645 1.328125,12.421875 C0.442703906,11.1822855 0,9.77084125 0,8.1875 C0,6.20832344 0.677076563,4.52084031 2.03125,3.125 Z" id=""></path>
                </g>
            </g>
        </g>
    </g>
</svg>