<?xml version="1.0" encoding="UTF-8"?>
<svg width="32px" height="32px" viewBox="0 0 32 32" version="1.1" xmlns="http://www.w3.org/2000/svg" xmlns:xlink="http://www.w3.org/1999/xlink">
    <!-- Generator: Sketch 52.2 (67145) - http://www.bohemiancoding.com/sketch -->
    <title>Group 5</title>
    <desc>Created with Sketch.</desc>
    <g id="Page-1" stroke="none" stroke-width="1" fill="none" fill-rule="evenodd">
        <g id="Desktop-Copy" transform="translate(-877.000000, -271.000000)">
            <g id="Group" transform="translate(877.000000, 271.000000)">
                <g id="Group-8">
                    <g id="Group-5">
                        <circle id="Oval" fill-opacity="0.1" fill="#00D98E" cx="16" cy="16" r="16"></circle>
                        <g id="baseline-work-24px" transform="translate(8.000000, 8.000000)">
                            <polygon id="Path" points="0 0 16 0 16 16 0 16"></polygon>
                            <path d="M13.3333333,4 L10.6666667,4 L10.6666667,2.66666667 C10.6666667,1.92666667 10.0733333,1.33333333 9.33333333,1.33333333 L6.66666667,1.33333333 C5.92666667,1.33333333 5.33333333,1.92666667 5.33333333,2.66666667 L5.33333333,4 L2.66666667,4 C1.92666667,4 1.34,4.59333333 1.34,5.33333333 L1.33333333,12.6666667 C1.33333333,13.4066667 1.92666667,14 2.66666667,14 L13.3333333,14 C14.0733333,14 14.6666667,13.4066667 14.6666667,12.6666667 L14.6666667,5.33333333 C14.6666667,4.59333333 14.0733333,4 13.3333333,4 Z M9.33333333,4 L6.66666667,4 L6.66666667,2.66666667 L9.33333333,2.66666667 L9.33333333,4 Z" id="Shape" fill="#00D98E" fill-rule="nonzero"></path>
                        </g>
                    </g>
                </g>
            </g>
        </g>
    </g>
</svg>