<?xml version="1.0" encoding="UTF-8"?>
<svg width="32px" height="32px" viewBox="0 0 32 32" version="1.1" xmlns="http://www.w3.org/2000/svg" xmlns:xlink="http://www.w3.org/1999/xlink">
    <!-- Generator: Sketch 52.2 (67145) - http://www.bohemiancoding.com/sketch -->
    <title>Group 5 Copy</title>
    <desc>Created with Sketch.</desc>
    <g id="Page-1" stroke="none" stroke-width="1" fill="none" fill-rule="evenodd">
        <g id="Desktop-Copy" transform="translate(-386.000000, -271.000000)" fill="#FFB132">
            <g id="Group-2-Copy" transform="translate(386.000000, 271.000000)">
                <g id="Group-6">
                    <g id="Group-5-Copy">
                        <circle id="Oval" fill-opacity="0.1" cx="16" cy="16" r="16"></circle>
                        <g id="basketball" transform="translate(8.000000, 8.000000)" fill-rule="nonzero">
                            <path d="M13.6568603,2.34313966 C12.1459961,0.832153313 10.1368408,0 8,0 C5.86315919,0 3.85400391,0.832153313 2.34313966,2.34313966 C0.832153312,3.85400391 -2.84217094e-14,5.86315919 -2.84217094e-14,8 C-2.84217094e-14,10.1368408 0.832153312,12.1459961 2.34313966,13.6568603 C3.85400391,15.1678467 5.86315919,16 8,16 C9.06848144,16 10.1049805,15.7918701 11.0631103,15.3950195 C12.0212402,14.9981689 12.9012451,14.4124756 13.6568603,13.6568603 C15.1678467,12.1459961 16,10.1368408 16,8 C16,5.86315919 15.1678467,3.85400391 13.6568603,2.34313966 Z M10.7451172,10.0822754 C11.9490967,9.02478028 13.449707,8.41833497 15.0505371,8.34277344 C14.9764404,9.88940431 14.3973389,11.4160156 13.3146972,12.6518555 L10.7451172,10.0822754 Z M15.0340576,7.40466309 L15.0340576,7.40515137 C14.1463623,7.444458 13.2796631,7.62890625 12.4508057,7.95666503 C11.5772705,8.30200194 10.7821045,8.79296875 10.0810547,9.41809081 L8.66284181,8 L13.3146972,3.34814453 C14.3383789,4.51660156 14.9118652,5.94494628 15.0340576,7.40466309 Z M7.95666503,12.4508057 C7.62902831,13.279541 7.44458006,14.1464844 7.40527344,15.0340576 C7.40502931,15.0340576 7.40490722,15.0340576 7.40466309,15.0340576 C5.94494628,14.9118653 4.51660156,14.3383789 3.34814453,13.3146973 L8,8.66284181 L9.41809081,10.0810547 C8.79296875,10.7821045 8.30200194,11.5772705 7.95666503,12.4508057 Z M5.25476075,5.91772463 C4.05090331,6.97497559 2.54980469,7.58081056 0.949462875,7.65698244 C1.02355956,6.11035156 1.60253906,4.58398438 2.68530275,3.34814453 L5.25476075,5.91772463 Z M3.34814453,2.68530275 C4.58398437,1.60229494 6.11071778,1.02319338 7.65722656,0.949096688 C7.58154297,2.55017091 6.97521972,4.05090331 5.91772462,5.25476075 L3.34814453,2.68530275 Z M8.04333497,3.54907225 C8.37097169,2.72033691 8.55541994,1.8532715 8.59472656,0.965576188 L8.59558106,0.965576188 C10.0549316,1.08813475 11.4833984,1.66125488 12.6518555,2.68530275 L8,7.33703613 L6.58190919,5.91894531 C7.20690919,5.21777344 7.69787597,4.4227295 8.04333497,3.54907225 Z M0.965942375,8.59533691 C0.965942375,8.59521484 0.965942375,8.59521484 0.965942375,8.59521484 C1.85351562,8.55578613 2.72033691,8.37097169 3.54907225,8.04333497 C4.4227295,7.69799806 5.21777344,7.20703125 5.91894531,6.58190919 L7.33703612,8 L2.68530275,12.6518555 C1.66149903,11.4833984 1.08813475,10.0549316 0.965942375,8.59533691 Z M8.34277344,15.0506592 C8.41845703,13.449585 9.02478028,11.9490967 10.0822754,10.7451172 L12.6518555,13.3146973 C11.4160156,14.3974609 9.88952637,14.9764404 8.34277344,15.0506592 Z" id="Shape"></path>
                        </g>
                    </g>
                </g>
            </g>
        </g>
    </g>
</svg>