<?xml version="1.0" encoding="UTF-8"?>
<svg width="280px" height="79px" viewBox="0 0 280 79" version="1.1" xmlns="http://www.w3.org/2000/svg" xmlns:xlink="http://www.w3.org/1999/xlink">
    <!-- Generator: Sketch 52.2 (67145) - http://www.bohemiancoding.com/sketch -->
    <title>Group 4</title>
    <desc>Created with Sketch.</desc>
    <defs>
        <linearGradient x1="50%" y1="0%" x2="50%" y2="100%" id="linearGradient-1">
            <stop stop-color="#F1549A" offset="0%"></stop>
            <stop stop-color="#F36161" offset="100%"></stop>
        </linearGradient>
        <path d="M143.75994,22.2094735 C144.95056,21.9316623 146.280065,21.4653434 147.748495,20.8105028 C149.216925,20.1556623 150.675412,19.391693 152.123999,18.5185723 C153.572586,17.6454515 154.941777,16.7227354 156.231615,15.7503964 C157.521452,14.7780573 158.583072,13.8354979 159.416505,12.9226898 C160.805561,11.4939467 161.45047,10.2338936 161.351252,9.14249259 C161.252034,8.05109161 160.716263,7.11845386 159.743924,6.34455135 C158.771585,5.57064884 157.491688,4.95550479 155.904196,4.49910075 C154.316704,4.0426967 152.709392,3.73512468 151.082212,3.57637545 C148.89941,3.37793891 146.557894,3.40770394 144.057594,3.66567144 C141.557293,3.92363895 138.9975,4.35027111 136.378138,4.94558073 C133.758776,5.54089036 131.119609,6.28501622 128.46056,7.17798065 C125.80151,8.07094509 123.221874,9.04326955 120.721573,10.0949832 C118.221273,11.1466969 115.859913,12.2579248 113.637424,13.4287004 C111.414935,14.599476 109.430599,15.7801557 107.684358,16.970775 C105.699992,18.2804561 103.814873,19.6397261 102.028945,21.0486255 C100.243016,22.4575249 98.7150773,23.8564816 97.4450834,25.2455374 C96.1750895,26.6345931 95.2622951,28.0137064 94.7066728,29.3829185 C94.1510505,30.7521307 94.1212855,32.0518705 94.6173768,33.2821771 C95.1134682,34.5124836 96.2246961,35.6633983 97.9510941,36.7349556 C99.677492,37.8065129 102.187677,38.758994 105.481723,39.5924275 C107.188277,40.0289879 109.003944,40.4953068 110.928779,40.9913981 C112.853613,41.4874895 114.758576,42.0629468 116.643723,42.7177874 C118.52887,43.372628 120.36438,44.1167539 122.150309,44.9501873 C123.936238,45.7836208 125.54355,46.7559453 126.972293,47.8671899 C129.036033,49.4546822 130.425068,51.0223074 131.13944,52.5701124 C131.853811,54.1179174 132.072088,55.6458559 131.794277,57.1539736 C131.516466,58.6620913 130.821948,60.1602647 129.710704,61.6485387 C128.599459,63.1368128 127.250111,64.6349862 125.662618,66.1431039 C124.392625,67.3337232 123.00359,68.4945595 121.495472,69.6256478 C119.987354,70.7567361 118.409807,71.8183557 116.762784,72.8105384 C115.115761,73.8027211 113.409232,74.6758287 111.643147,75.4298876 C109.877062,76.1839465 108.101081,76.7792471 106.315152,77.2158075 C104.2911,77.7317425 102.276999,78.0095495 100.27279,78.0492368 C98.2685809,78.0889241 96.4628355,77.9103339 94.8554995,77.5134609 C93.2481635,77.1165878 91.938502,76.5014437 90.9264756,75.6680103 C89.9144493,74.8345768 89.3886003,73.8027223 89.348913,72.5724157 C89.3092257,71.5008584 89.6564845,70.4293171 90.3906997,69.3577598 C91.1249149,68.2862025 92.107161,67.254348 93.3374675,66.2621653 C94.5677741,65.2699826 95.9568091,64.3472665 97.5046141,63.4939894 C99.0524191,62.6407122 100.620044,61.8866647 102.207537,61.2318241 C103.795029,60.5769835 105.342811,60.0312912 106.850928,59.5947308 C108.359046,59.1581704 109.668708,58.8605201 110.779952,58.7017709 L116.911611,60.1305068 C116.197239,60.289256 115.105855,60.5769847 113.637424,60.9937014 C112.168994,61.4104182 110.55176,61.9263454 108.785675,62.5414987 C107.01959,63.156652 105.203923,63.8511695 103.338619,64.625072 C101.473316,65.3989745 99.7965521,66.2125521 98.308278,67.0658292 C96.820004,67.9191064 95.6393243,68.792214 94.7662035,69.6851785 C93.8930827,70.5781429 93.5359023,71.4413289 93.6946515,72.2747624 C93.8534008,72.9494466 94.3494847,73.5050606 95.1829182,73.941621 C96.0163516,74.3781814 97.0382845,74.6758317 98.2487474,74.834581 C99.4592103,74.9933302 100.788715,74.9933302 102.237302,74.834581 C103.685889,74.6758317 105.104689,74.358338 106.493744,73.8820903 C109.589354,72.810533 112.605545,71.4016547 115.542405,69.6554131 C118.479266,67.9091716 121.098589,65.9645226 123.400453,63.821408 C125.265757,62.0751664 126.634948,60.4678546 127.508069,58.9994242 C128.38119,57.5309938 128.698684,56.1518805 128.46056,54.862043 C128.222436,53.5722055 127.41878,52.322074 126.049568,51.1116111 C124.680356,49.9011482 122.686098,48.7006252 120.066736,47.5100059 C117.566436,46.359074 115.046329,45.4760446 112.506342,44.8608913 C109.966354,44.2457381 107.366874,43.5412989 104.707824,42.7475527 C103.398143,42.3506797 102.07856,41.9736559 100.749035,41.6164701 C99.4195105,41.2592843 98.139614,40.8028871 96.9093074,40.2472648 C94.1708832,38.9375837 92.3353727,37.4989403 91.402721,35.9312916 C90.4700692,34.363643 90.1426538,32.7464094 90.420465,31.0795425 C90.6982761,29.4126755 91.4523237,27.7458336 92.6826302,26.0789667 C93.9129368,24.4120997 95.3118934,22.8345529 96.8795421,21.3462788 C98.4471908,19.8580048 100.044581,18.5086565 101.671761,17.2981936 C103.29894,16.0877307 104.668132,15.1054846 105.779376,14.3514257 C107.962178,12.8829953 110.502128,11.4046653 113.399302,9.91639123 C116.296475,8.42811717 119.372195,7.0490039 122.626555,5.77901004 C125.880914,4.50901618 129.234441,3.40770989 132.687237,2.47505815 C136.140033,1.54240641 139.513403,0.897497327 142.80745,0.540311554 C145.982434,0.18312578 149.097841,0.123595711 152.153764,0.36171956 C155.209687,0.599843409 158.206034,1.5126378 161.142895,3.10013013 C163.047885,4.13200014 164.25833,5.30275817 164.774265,6.61243934 C165.2902,7.92212051 165.339808,9.25162539 164.923092,10.6009939 C164.506375,11.9503623 163.782092,13.2600239 162.750222,14.5300177 C161.718352,15.8000116 160.607124,16.9112396 159.416505,17.8637349 C158.027449,19.0146669 156.489589,20.0465214 154.802879,20.9593295 C153.116168,21.8721376 151.409639,22.6956369 149.683242,23.4298521 C147.956844,24.1640673 146.270158,24.8089764 144.623135,25.3645987 C142.976112,25.920221 141.517625,26.3964616 140.247631,26.7933346 L143.75994,22.2094735 Z M141.557306,54.3560323 C142.192303,53.3638496 142.916585,52.3419168 143.730175,51.2902031 C144.543765,50.2384894 145.416873,49.1867916 146.349524,48.1350779 C147.282176,47.0833642 148.244579,46.0515097 149.236762,45.0394833 C150.228944,44.027457 151.221112,43.1047409 152.213295,42.2713074 C152.252982,42.2316201 152.501024,42.2018551 152.957428,42.1820114 C153.413832,42.1621678 153.899994,42.1522461 154.415929,42.1522461 C154.931864,42.1522461 155.37834,42.1621678 155.755369,42.1820114 C156.132399,42.2018551 156.261381,42.2713068 156.142319,42.3903688 C155.070761,43.1444276 153.93969,44.0969087 152.749071,45.2478407 C151.558452,46.3987726 150.42738,47.5695306 149.355823,48.7601499 C148.284266,49.9507691 147.341706,51.0719187 146.528116,52.1236324 C145.714527,53.1753461 145.148991,53.9393153 144.831492,54.415563 C144.434619,54.9711853 144.047674,55.5466427 143.670644,56.1419523 C143.293615,56.7372619 142.9662,57.3127192 142.688388,57.8683415 C142.410577,58.4239639 142.212144,58.9398911 142.093082,59.4161388 C141.97402,59.8923865 141.97402,60.2694103 142.093082,60.5472215 C142.291518,60.9440945 142.827289,60.8845645 143.70041,60.3686295 C144.573531,59.8526945 145.645072,59.0589602 146.915066,57.9874029 C148.18506,56.9158456 149.564173,55.6756358 151.052447,54.2667363 C152.540721,52.8578369 153.999208,51.4390369 155.427951,50.0102938 C156.578883,48.621238 157.789327,47.2619681 159.059321,45.9324433 C160.329315,44.6029185 161.619133,43.3825521 162.928814,42.2713074 C162.968502,42.2316201 163.216544,42.2018551 163.672948,42.1820114 C164.129352,42.1621678 164.605592,42.1522461 165.101684,42.1522461 C165.597775,42.1522461 166.044251,42.1720895 166.441124,42.2117768 C166.837997,42.2514641 166.9769,42.3109941 166.857838,42.3903688 C165.310033,43.4619261 163.722565,44.8708044 162.095385,46.6170459 L160.488057,48.2839045 C159.337125,49.5538984 158.315192,50.7643432 157.422228,51.9152751 C156.529264,53.066207 155.904198,53.899628 155.547012,54.415563 C155.150139,54.9711853 154.763194,55.5466427 154.386164,56.1419523 C154.009135,56.7372619 153.681719,57.3127192 153.403908,57.8683415 C153.126097,58.4239639 152.927663,58.9398911 152.808601,59.4161388 C152.68954,59.8923865 152.709383,60.2694103 152.868132,60.5472215 C153.066569,60.9837818 153.741243,60.79527 154.892175,59.9816801 C156.043107,59.1680903 157.412298,58.0270973 158.999791,56.5586669 C160.587283,55.0902365 162.264047,53.4630813 164.030132,51.6771524 C165.796217,49.8912236 167.393607,48.244225 168.82235,46.7361073 C169.020787,46.4186088 169.209299,46.1705669 169.387892,45.991974 C169.566484,45.8133811 169.695466,45.6248692 169.774841,45.4264326 C169.695466,44.8708103 169.83437,44.2457446 170.191556,43.5512167 C170.548741,42.8566888 170.965452,42.2217014 171.441699,41.6462354 C171.917947,41.0707695 172.414031,40.5945289 172.929966,40.2174995 C173.445901,39.8404701 173.862612,39.6916449 174.18011,39.7710195 C174.735732,39.9297687 174.934166,40.445696 174.775417,41.3188168 C174.616667,42.1919376 174.319017,43.0452019 173.882457,43.8786354 C173.326834,44.8708181 172.830751,45.5058055 172.39419,45.7836166 C172.314815,46.1804897 172.384267,46.5972002 172.602547,47.0337606 C172.820828,47.470321 173.207773,47.6687545 173.763395,47.6290672 C174.477767,47.5893799 175.221893,47.4703198 175.995795,47.2718833 C176.769698,47.0734467 177.523745,46.8353264 178.257961,46.5575153 C178.992176,46.2797041 179.716458,45.9820538 180.43083,45.6645553 C181.145201,45.3470568 181.839719,45.0692499 182.514403,44.831126 C182.514403,44.8708133 182.415186,45.0394818 182.21675,45.3371367 C182.018313,45.6347915 181.780193,45.9721285 181.502382,46.349158 C181.224571,46.7261874 180.966607,47.0833678 180.728483,47.4207099 C180.490359,47.758052 180.351456,47.9664073 180.311769,48.0457819 C180.073645,48.2442184 179.696621,48.4823387 179.180686,48.7601499 C178.664751,49.037961 178.079372,49.3058463 177.424531,49.5638138 C176.769691,49.8217813 176.085095,50.0400583 175.370723,50.2186511 C174.656352,50.397244 173.981678,50.4766175 173.346681,50.4567738 C172.711684,50.4369302 172.15607,50.288105 171.679822,50.0102938 C171.203574,49.7324827 170.866237,49.2760855 170.667801,48.6410885 C169.556556,49.8317078 168.39572,51.0619959 167.185257,52.3319897 C165.974794,53.6019836 164.804036,54.82235 163.672948,55.9931256 C162.541859,57.1639012 161.490162,58.2155991 160.517823,59.1482508 C159.545483,60.0809026 158.741828,60.7853417 158.106831,61.2615894 C157.789332,61.4997133 157.283327,61.8370503 156.588799,62.2736107 C155.894271,62.7101711 155.150145,63.0871949 154.356399,63.4046934 C153.562653,63.7221918 152.798683,63.8908603 152.064468,63.910704 C151.330253,63.9305477 150.744874,63.6626623 150.308314,63.10704 C149.593942,62.1545446 149.514569,60.7655097 150.070191,58.9398935 C148.919259,60.0114508 148.026308,60.7853417 147.391311,61.2615894 C147.073813,61.4997133 146.567807,61.8370503 145.873279,62.2736107 C145.178751,62.7101711 144.434625,63.0871949 143.640879,63.4046934 C142.847133,63.7221918 142.083164,63.8908603 141.348949,63.910704 C140.614733,63.9305477 140.029354,63.6626623 139.592794,63.10704 C138.91811,62.1942319 138.789128,60.9540222 139.205845,59.3863735 C139.622561,57.8187248 140.406374,56.1419612 141.557306,54.3560323 Z M175.192131,60.1305068 C175.747754,59.8130083 176.462114,59.3665328 177.335235,58.7910668 C178.208356,58.2156009 179.12115,57.6004568 180.073646,56.9456162 C181.026141,56.2907757 181.929014,55.6657099 182.782291,55.0704003 C183.635568,54.4750907 184.320164,53.9988501 184.836099,53.6416644 L185.133752,56.2610136 C184.498755,56.697574 183.714943,57.282953 182.782291,58.0171682 C181.849639,58.7513834 180.867393,59.4955093 179.835523,60.2495681 C178.803653,61.003627 177.791642,61.6981445 176.799459,62.3331414 C175.807277,62.9681383 174.954012,63.4046922 174.239641,63.642816 C173.445895,63.9206272 172.791064,63.9801572 172.275129,63.821408 C171.759194,63.6626588 171.362327,63.3451651 171.084515,62.8689174 C170.806704,62.3926697 170.657879,61.8072907 170.638036,61.1127628 C170.618192,60.4182349 170.72733,59.674109 170.965454,58.8803628 C171.441702,57.3325578 172.116376,55.7351676 172.989497,54.0881443 C173.862618,52.4411211 174.805177,50.8536525 175.817203,49.3256912 C176.82923,47.7977298 177.851163,46.3690082 178.883033,45.0394833 C179.914903,43.7099585 180.807854,42.5888089 181.561912,41.6760008 C182.196909,41.5966262 182.772367,41.5867045 183.288302,41.6462354 C183.804237,41.7057664 184.379694,41.7156881 185.014691,41.6760008 C184.419381,42.1522485 183.58596,43.0749646 182.514403,44.4441767 C181.442846,45.8133888 180.331618,47.3512489 179.180686,49.0578032 C178.029754,50.7643574 176.968134,52.4907294 175.995795,54.236971 C175.023456,55.9832126 174.358704,57.511151 174.001518,58.8208322 C173.803082,59.4955164 173.783238,59.9816787 173.941987,60.2793335 C174.100737,60.5769883 174.517447,60.5273799 175.192131,60.1305068 Z M185.252814,33.3417077 C185.252814,32.4288997 185.580229,31.6351654 186.23507,30.9604812 C186.88991,30.2857969 187.673723,29.9484599 188.586531,29.9484599 C189.499339,29.9484599 190.293073,30.2857969 190.967757,30.9604812 C191.642442,31.6351654 191.979779,32.4288997 191.979779,33.3417077 C191.979779,34.2545158 191.642442,35.0383284 190.967757,35.693169 C190.293073,36.3480096 189.499339,36.675425 188.586531,36.675425 C187.673723,36.675425 186.88991,36.3480096 186.23507,35.693169 C185.580229,35.0383284 185.252814,34.2545158 185.252814,33.3417077 Z M182.752526,55.129931 C183.705021,54.3758721 184.508677,53.7408847 185.163518,53.2249497 C185.818358,52.7090147 186.413659,52.2129308 186.949438,51.7366831 C187.485216,51.2604354 188.011065,50.7643515 188.527,50.2484165 C189.042935,49.7324815 189.677923,49.1173374 190.431981,48.4029659 C191.18604,47.6092197 191.940088,46.6865036 192.694147,45.63479 C193.448206,44.5830763 194.30147,43.5809868 195.253965,42.6284914 C195.611151,42.2713056 196.008018,41.8942819 196.444579,41.4974088 C196.881139,41.1005357 197.317693,40.753277 197.754253,40.4556222 C198.190814,40.1579673 198.617446,39.9496121 199.034163,39.8305502 C199.450879,39.7114883 199.798138,39.7710183 200.075949,40.0091422 C200.393448,40.2075787 200.472821,40.753271 200.314072,41.6462354 C200.155323,42.5391999 199.460805,43.6405062 198.230499,44.9501873 C197.119254,46.1804939 196.256068,47.0932883 195.640915,47.6885979 C195.025761,48.2839075 194.559442,48.7403047 194.241944,49.0578032 C193.924446,49.3753017 193.735934,49.6233436 193.676403,49.8019365 C193.616872,49.9805294 193.587107,50.2682581 193.587107,50.6651311 C193.626794,50.9826296 193.775619,51.3298883 194.033587,51.7069178 C194.291554,52.0839472 194.539596,52.4312059 194.77772,52.7487044 C195.333342,53.6615125 195.898878,54.4949335 196.474344,55.2489923 C197.04981,56.0030512 197.337539,56.8563155 197.337539,57.8088109 C198.567845,56.9356901 199.788212,56.0725041 200.998674,55.219227 C202.209137,54.3659498 203.131853,53.7210408 203.76685,53.2844804 L204.064504,55.9038296 C203.627943,56.2213281 203.072329,56.6082735 202.397645,57.0646776 C201.722961,57.5210816 200.988757,58.0270872 200.19501,58.5827095 C199.401264,59.1383318 198.577765,59.7038675 197.724488,60.2793335 C196.871211,60.8547994 196.047711,61.3806484 195.253965,61.8568961 C194.658656,62.3728311 193.97406,62.8193066 193.200157,63.196336 C192.426255,63.5733655 191.632521,63.8313291 190.818931,63.9702347 C190.005341,64.1091402 189.181842,64.1091402 188.348408,63.9702347 C187.514975,63.8313291 186.741084,63.5237571 186.026712,63.0475094 C185.90765,62.9681348 185.72906,62.8093879 185.490936,62.571264 C185.252812,62.3331402 185.054379,62.0454115 184.89563,61.7080694 C184.73688,61.3707273 184.647585,61.0234686 184.627742,60.6662828 C184.607898,60.309097 184.73688,59.9519166 185.014691,59.5947308 C185.252815,59.3169197 185.748899,59.1879378 186.502958,59.2077815 C187.257016,59.2276252 187.951534,59.6145706 188.586531,60.3686295 C189.102466,61.0433137 189.83667,61.340964 190.789165,61.2615894 C191.741661,61.1822148 192.555238,60.8647211 193.229923,60.3090988 C193.666483,59.9122257 193.934368,59.4756719 194.033587,58.9994242 C194.132805,58.5231765 194.182413,58.0072492 194.182413,57.4516269 C194.182413,57.0547538 194.073275,56.6182 193.854995,56.1419523 C193.636715,55.6657046 193.378751,55.1993857 193.081096,54.7429817 C192.783441,54.2865776 192.495713,53.8698671 192.217901,53.4928377 C191.94009,53.1158083 191.721813,52.8082362 191.563064,52.5701124 C191.483689,52.4907378 191.414238,52.3815993 191.354707,52.2426937 C191.295176,52.1037882 191.225724,51.984728 191.146349,51.8855098 C191.066975,51.7862915 190.947915,51.7466048 190.789165,51.7664484 C190.630416,51.7862921 190.431983,51.8954305 190.193859,52.0938671 C189.122302,52.9669879 188.130134,53.8103305 187.217326,54.6239203 C186.304518,55.4375101 185.19329,56.3006961 183.883608,57.2135042 L182.752526,55.129931 Z M195.908803,63.8809387 C198.44879,60.1503317 201.117722,56.2411905 203.915677,52.1533977 C206.713632,48.065605 209.561154,43.9381869 212.458327,39.7710195 C215.355501,35.6038522 218.252631,31.446669 221.149804,27.2993453 C224.046978,23.1520216 226.884578,19.1535853 229.662689,15.3039164 L234.008428,14.3514257 C231.666877,17.605785 229.236066,20.998999 226.715922,24.5311694 C224.195777,28.0633398 221.675671,31.6450656 219.155527,35.2764543 C216.635383,38.907843 214.125198,42.5391773 211.624898,46.170566 C209.124598,49.8019547 206.723552,53.3439938 204.421688,56.7967896 C205.255121,55.9236688 206.336584,54.8521276 207.666109,53.5821337 C208.995634,52.3121398 210.374747,51.0223217 211.80349,49.7126405 C213.232233,48.4029593 214.611346,47.1825929 215.940871,46.0515046 C217.270396,44.9204163 218.391546,44.0770737 219.304354,43.5214514 C219.979038,43.1245783 220.64379,42.856693 221.298631,42.7177874 C221.953472,42.5788818 222.499164,42.5987252 222.935724,42.7773181 C223.372285,42.955911 223.660013,43.3329347 223.798919,43.9084007 C223.937825,44.4838667 223.828686,45.2676793 223.4715,46.259862 C222.876191,47.4107939 222.122143,48.6311603 221.209335,49.9209978 C220.296527,51.2108353 219.393654,52.4708885 218.50069,53.701195 C217.607725,54.9315016 216.804069,56.1121813 216.089698,57.2432696 C215.375326,58.3743579 214.958616,59.3764474 214.839554,60.2495681 C214.760179,60.7258158 215.037986,60.8250326 215.672983,60.5472215 C215.792045,60.5472215 216.317894,60.2594928 217.250546,59.6840268 C218.183198,59.1085608 219.224974,58.4239651 220.375906,57.6302189 C221.526838,56.8364727 222.667831,56.0625818 223.798919,55.308523 C224.930007,54.5544641 225.733663,53.9988501 226.209911,53.6416644 L226.507564,56.2610136 C225.912255,56.697574 225.108599,57.2928747 224.096572,58.0469335 C223.084546,58.8009924 222.022926,59.5649616 220.911682,60.3388641 C219.800437,61.1127666 218.709053,61.8370491 217.637495,62.5117334 C216.565938,63.1864176 215.672987,63.6428148 214.958615,63.8809387 C214.363306,64.0000006 213.698553,63.9702356 212.964338,63.7916427 C212.230123,63.6130498 211.704274,63.1864176 211.386775,62.5117334 C211.267713,61.4401761 211.505834,60.209888 212.101143,58.8208322 C212.696453,57.4317764 213.440579,56.0427414 214.333543,54.6536857 C215.226508,53.2646299 216.159146,51.9549684 217.131485,50.7246618 C218.103824,49.4943552 218.887636,48.4625007 219.482946,47.6290672 C219.840132,47.0734449 220.018722,46.6864995 220.018722,46.4682193 C220.018722,46.2499391 219.840132,46.2797041 219.482946,46.5575153 C218.09389,47.6687599 216.605638,48.9883431 215.018146,50.5163045 C213.430654,52.0442658 211.793577,53.611891 210.106866,55.219227 C208.420156,56.826563 206.713627,58.3941881 204.987229,59.9221495 C203.260831,61.4501108 201.544381,62.769694 199.837826,63.8809387 L195.908803,63.8809387 Z M218.768578,63.8809387 C221.308566,60.1503317 223.977497,56.2411905 226.775452,52.1533977 C229.573407,48.065605 232.420929,43.9381869 235.318103,39.7710195 C238.215276,35.6038522 241.112406,31.446669 244.00958,27.2993453 C246.906753,23.1520216 249.744353,19.1535853 252.522465,15.3039164 L256.868203,14.3514257 C254.526652,17.605785 252.095841,20.998999 249.575697,24.5311694 C247.055553,28.0633398 244.535446,31.6450656 242.015302,35.2764543 C239.495158,38.907843 236.984974,42.5391773 234.484673,46.170566 C231.984373,49.8019547 229.583327,53.3439938 227.281463,56.7967896 C228.114896,55.9236688 229.196359,54.8521276 230.525884,53.5821337 C231.855409,52.3121398 233.234522,51.0223217 234.663265,49.7126405 C236.092008,48.4029593 237.471122,47.1825929 238.800646,46.0515046 C240.130171,44.9204163 241.251321,44.0770737 242.164129,43.5214514 C242.838813,43.1245783 243.503566,42.856693 244.158406,42.7177874 C244.813247,42.5788818 245.358939,42.5987252 245.7955,42.7773181 C246.23206,42.955911 246.519789,43.3329347 246.658694,43.9084007 C246.7976,44.4838667 246.688461,45.2676793 246.331276,46.259862 C245.735966,47.4107939 244.981918,48.6311603 244.06911,49.9209978 C243.156302,51.2108353 242.253429,52.4708885 241.360465,53.701195 C240.467501,54.9315016 239.663845,56.1121813 238.949473,57.2432696 C238.235102,58.3743579 237.818391,59.3764474 237.699329,60.2495681 C237.619955,60.7258158 237.897762,60.8250326 238.532758,60.5472215 C238.65182,60.5472215 239.177669,60.2594928 240.110321,59.6840268 C241.042973,59.1085608 242.084749,58.4239651 243.235681,57.6302189 C244.386613,56.8364727 245.527606,56.0625818 246.658694,55.308523 C247.789782,54.5544641 248.593438,53.9988501 249.069686,53.6416644 L249.367339,56.2610136 C248.77203,56.697574 247.968374,57.2928747 246.956348,58.0469335 C245.944321,58.8009924 244.882702,59.5649616 243.771457,60.3388641 C242.660212,61.1127666 241.568828,61.8370491 240.49727,62.5117334 C239.425713,63.1864176 238.532762,63.6428148 237.81839,63.8809387 C237.223081,64.0000006 236.558328,63.9702356 235.824113,63.7916427 C235.089898,63.6130498 234.564049,63.1864176 234.246551,62.5117334 C234.127489,61.4401761 234.365609,60.209888 234.960919,58.8208322 C235.556228,57.4317764 236.300354,56.0427414 237.193319,54.6536857 C238.086283,53.2646299 239.018921,51.9549684 239.99126,50.7246618 C240.963599,49.4943552 241.747411,48.4625007 242.342721,47.6290672 C242.699907,47.0734449 242.878497,46.6864995 242.878497,46.4682193 C242.878497,46.2499391 242.699907,46.2797041 242.342721,46.5575153 C240.953665,47.6687599 239.465413,48.9883431 237.877921,50.5163045 C236.290429,52.0442658 234.653352,53.611891 232.966641,55.219227 C231.279931,56.826563 229.573402,58.3941881 227.847004,59.9221495 C226.120606,61.4501108 224.404156,62.769694 222.697602,63.8809387 L218.768578,63.8809387 Z M241.628353,63.8809387 C244.168341,60.1503317 246.837272,56.2411905 249.635227,52.1533977 C252.433183,48.065605 255.280704,43.9381869 258.177878,39.7710195 C261.075051,35.6038522 263.972181,31.446669 266.869355,27.2993453 C269.766528,23.1520216 272.604128,19.1535853 275.38224,15.3039164 L279.727978,14.3514257 C277.386427,17.605785 274.955616,20.998999 272.435472,24.5311694 C269.915328,28.0633398 267.395222,31.6450656 264.875078,35.2764543 C262.354933,38.907843 259.844749,42.5391773 257.344448,46.170566 C254.844148,49.8019547 252.443102,53.3439938 250.141238,56.7967896 C250.974672,55.9236688 252.056134,54.8521276 253.385659,53.5821337 C254.715184,52.3121398 256.094297,51.0223217 257.52304,49.7126405 C258.951784,48.4029593 260.330897,47.1825929 261.660422,46.0515046 C262.989946,44.9204163 264.111096,44.0770737 265.023904,43.5214514 C265.698588,43.1245783 266.363341,42.856693 267.018181,42.7177874 C267.673022,42.5788818 268.218714,42.5987252 268.655275,42.7773181 C269.091835,42.955911 269.379564,43.3329347 269.518469,43.9084007 C269.657375,44.4838667 269.548237,45.2676793 269.191051,46.259862 C268.595741,47.4107939 267.841694,48.6311603 266.928885,49.9209978 C266.016077,51.2108353 265.113205,52.4708885 264.22024,53.701195 C263.327276,54.9315016 262.52362,56.1121813 261.809248,57.2432696 C261.094877,58.3743579 260.678166,59.3764474 260.559104,60.2495681 C260.47973,60.7258158 260.757537,60.8250326 261.392534,60.5472215 C261.511596,60.5472215 262.037445,60.2594928 262.970096,59.6840268 C263.902748,59.1085608 264.944524,58.4239651 266.095456,57.6302189 C267.246388,56.8364727 268.387381,56.0625818 269.518469,55.308523 C270.649558,54.5544641 271.453214,53.9988501 271.929461,53.6416644 L272.227115,56.2610136 C271.631805,56.697574 270.828149,57.2928747 269.816123,58.0469335 C268.804096,58.8009924 267.742477,59.5649616 266.631232,60.3388641 C265.519988,61.1127666 264.428603,61.8370491 263.357046,62.5117334 C262.285488,63.1864176 261.392537,63.6428148 260.678166,63.8809387 C260.082856,64.0000006 259.418104,63.9702356 258.683888,63.7916427 C257.949673,63.6130498 257.423824,63.1864176 257.106326,62.5117334 C256.987264,61.4401761 257.225384,60.209888 257.820694,58.8208322 C258.416003,57.4317764 259.160129,56.0427414 260.053094,54.6536857 C260.946058,53.2646299 261.878696,51.9549684 262.851035,50.7246618 C263.823374,49.4943552 264.607187,48.4625007 265.202496,47.6290672 C265.559682,47.0734449 265.738272,46.6864995 265.738272,46.4682193 C265.738272,46.2499391 265.559682,46.2797041 265.202496,46.5575153 C263.81344,47.6687599 262.325189,48.9883431 260.737696,50.5163045 C259.150204,52.0442658 257.513127,53.611891 255.826417,55.219227 C254.139706,56.826563 252.433177,58.3941881 250.706779,59.9221495 C248.980381,61.4501108 247.263931,62.769694 245.557377,63.8809387 L241.628353,63.8809387 Z" id="path-2"></path>
    </defs>
    <g id="Page-1" stroke="none" stroke-width="1" fill="none" fill-rule="evenodd">
        <g id="Desktop-HD" transform="translate(-99.000000, -54.000000)" fill-rule="nonzero">
            <g id="basketball-(1)" transform="translate(99.000000, 54.000000)">
                <g id="Group-3">
                    <g id="Group-4">
                        <path d="M52.8508232,49.8696275 C52.9012932,50.5895334 52.922243,51.3080742 52.9146249,52.023885 C52.8607539,57.0325133 51.3984834,61.8965872 48.7303735,66.0707854 C47.7138989,67.6610211 46.5224796,69.1509286 45.1674069,70.5107508 C45.1672708,70.5108873 45.1672708,70.5108873 45.1671348,70.5110238 L45.1669987,70.5111603 C42.4257005,73.2617904 39.1844633,75.3088947 35.5337523,76.5956889 C34.468032,76.9712029 33.3831303,77.2771015 32.2817681,77.5128386 C32.2785032,77.5135211 32.2753743,77.5143401 32.2722454,77.5150226 C32.0286017,77.5670294 31.7840057,77.6142588 31.5387295,77.6595771 C29.9308985,77.9560571 28.2904183,78.1060716 26.6253154,78.1060716 L26.6251793,78.1060716 C26.6137521,78.1060716 26.6021889,78.1057986 26.5906257,78.1057986 C25.9403649,78.1049796 25.2864311,78.0817744 24.6293684,78.0355006 C18.0293573,77.5705785 12.1922463,74.9684614 7.74938703,70.5106143 C3.24027731,65.9860183 0.511086474,59.9825713 0.0651544852,53.6063402 C-0.437505276,46.4173827 1.98532838,39.3651991 6.7436594,34.0318351 C6.75046129,34.0243275 6.75685507,34.0164105 6.76365696,34.0089029 C7.03042713,33.7103754 7.30631184,33.418673 7.5877741,33.1313385 C7.64178111,33.0763286 7.69442775,33.0199538 7.74897892,32.9652169 L7.74911496,32.9650804 C7.749251,32.9650804 7.749251,32.9649439 7.74938703,32.9648074 C11.4758712,29.2256377 16.1837321,26.7291723 21.2493726,25.7091009 C23.5518128,25.2455438 25.9283936,25.0869297 28.3200746,25.2553719 C34.6745374,25.7029584 40.6574809,28.4411669 45.1667267,32.9656264 C49.6758364,37.4902224 52.4047552,43.49326 52.8506871,49.869218 C52.8508232,49.8693545 52.8508232,49.869491 52.8508232,49.8696275 Z M29.6434505,28.1336303 C29.7068442,34.7907802 27.2796573,41.2274812 22.833261,46.171681 L26.4578528,49.8086116 L36.7557801,39.4756283 C37.2871438,38.9428652 38.1477191,38.9430017 38.6786747,39.4756283 C39.2096303,40.0085279 39.2096303,40.8723058 38.6786747,41.4050689 L28.3807474,51.7380521 L32.0054753,55.3751192 C36.9327653,50.9141325 43.3469487,48.4786831 49.9823296,48.5420195 C49.2888088,43.3923858 46.9296408,38.5931499 43.2439681,34.8949304 C39.5584313,31.196711 34.7756135,28.829512 29.6434505,28.1336303 Z M10.8256104,33.8137066 C10.7707871,33.8618915 10.7160999,33.9100763 10.6616848,33.9588071 L14.0770504,37.3853897 L20.909006,44.2406025 C24.890425,39.7605058 27.0391424,33.936148 26.9232382,27.9266949 C26.8027087,27.9242379 26.6819071,27.9208253 26.5616497,27.9202793 C26.5107715,27.9201428 26.4597573,27.9190508 26.4087431,27.9191873 C26.3083472,27.9193238 26.2083594,27.9213714 26.1082356,27.9228729 C26.0158659,27.9242379 25.9234962,27.9247839 25.8312626,27.9272409 C25.739165,27.9296979 25.6474755,27.9339294 25.5555139,27.9374785 C25.4556621,27.9413005 25.3558104,27.9443035 25.2560947,27.949354 C25.1830423,27.9530396 25.1105342,27.9584996 25.0376179,27.9628676 C24.5858363,27.9898948 24.1358232,28.0294801 23.6881227,28.0823059 C23.6507123,28.086674 23.6130298,28.090223 23.5754834,28.094864 C23.4455673,28.1108346 23.3160592,28.1289893 23.1865512,28.1471439 C23.1292793,28.1551974 23.0715993,28.1622955 23.0141913,28.1707585 C22.8913492,28.1887767 22.7687791,28.2089788 22.646345,28.2290444 C22.5825433,28.2394185 22.5188776,28.2491101 22.4552119,28.2600301 C22.336859,28.2803688 22.2186421,28.3026184 22.1006973,28.3247316 C22.0333586,28.3372897 21.9660199,28.3493017 21.8988172,28.3625423 C21.783185,28.3852015 21.667961,28.4096351 21.552737,28.4340688 C21.4837658,28.4488109 21.4147946,28.4628705 21.3459595,28.4781586 C21.2325039,28.5032748 21.1194565,28.5298925 21.0065451,28.5566466 C20.9362135,28.5732998 20.8657459,28.5896799 20.7955504,28.6070155 C20.6842715,28.6344522 20.5735367,28.6632539 20.4628019,28.6921921 C20.3915181,28.7108927 20.3202343,28.7294568 20.2490865,28.7488399 C20.139576,28.7785971 20.0303377,28.8094463 19.9215074,28.8408416 C19.8495434,28.8615897 19.7777154,28.8823378 19.7060235,28.903632 C19.5981455,28.9357097 19.4908117,28.9688794 19.3834778,29.0024587 C19.3112417,29.0251178 19.2391417,29.0479135 19.1671777,29.0712551 C19.0607961,29.1056533 18.9549587,29.1408706 18.8492573,29.1767703 C18.7766131,29.2013405 18.704377,29.2263202 18.6320049,29.2517093 C18.5275278,29.2882916 18.4235949,29.3254198 18.319662,29.3635036 C18.2464737,29.3902578 18.1735574,29.417558 18.1006411,29.4451311 C17.9982046,29.4836244 17.8961763,29.5228002 17.7942839,29.5627949 C17.7206875,29.5917331 17.6474991,29.6213538 17.5743108,29.6509745 C17.4736428,29.6916518 17.3731108,29.7327386 17.272987,29.7749174 C17.1993905,29.8059031 17.1260662,29.8377078 17.0527418,29.8695125 C16.9539783,29.9121008 16.8553509,29.9550986 16.7571316,29.9991884 C16.682991,30.0324946 16.6093945,30.0667563 16.535662,30.1007451 C16.4388031,30.1452444 16.3420802,30.1900167 16.2457654,30.2360175 C16.1716248,30.2713712 16.0981644,30.3079535 16.0244319,30.3441262 C15.9292054,30.390673 15.8341149,30.4372198 15.7395686,30.4852682 C15.665292,30.5228059 15.5916955,30.5618452 15.517691,30.6003384 C15.4246411,30.6486598 15.3317273,30.6967081 15.2393576,30.7463944 C15.1641287,30.7867987 15.089716,30.828568 15.0148952,30.8699278 C14.9247021,30.9196141 14.834509,30.9687544 14.7448601,31.0198058 C14.6686789,31.0630766 14.59345,31.1079854 14.5176769,31.1522117 C14.4302046,31.20299 14.3427323,31.2533588 14.2559401,31.3055022 C14.1767661,31.3530045 14.0985444,31.4022813 14.0199145,31.4508757 C13.9377477,31.5015175 13.8553087,31.5513404 13.773686,31.6030742 C13.6168344,31.7027199 13.4607991,31.8040036 13.306124,31.9074713 C13.2420502,31.950196 13.1789287,31.9946953 13.1151269,32.0382391 C13.0215329,32.1021216 12.9278029,32.165185 12.8350251,32.2304324 C12.7671422,32.2779348 12.7004837,32.3273481 12.6330089,32.3758059 C12.5455366,32.4387328 12.4580642,32.5009773 12.3714082,32.5649962 C12.302573,32.615638 12.2349622,32.6680544 12.1666712,32.7196517 C12.0825999,32.7831247 11.9985285,32.8463246 11.9152733,32.911026 C11.8465742,32.9643979 11.7788274,33.0192713 11.7106724,33.0734621 C11.6290497,33.1383001 11.5475631,33.2027285 11.4667566,33.2687949 C11.3987377,33.3243508 11.331535,33.3812717 11.2639242,33.4377831 C11.1843421,33.504259 11.104896,33.5705985 11.0261301,33.6381664 C10.9587914,33.6959063 10.8924049,33.7547382 10.8256104,33.8137066 Z M2.72292546,52.1599765 C2.72319754,52.1745821 2.72401376,52.1890512 2.72428584,52.2035203 C8.71620785,52.3199555 14.5201256,50.1636505 18.9857032,46.1690875 L8.73851806,35.8870191 C8.61349929,36.0277516 8.4894328,36.1694395 8.36795102,36.3127655 C8.36291762,36.3187715 8.35802026,36.3249141 8.35298686,36.3309201 C8.22837621,36.4783411 8.1056701,36.6275366 7.98486851,36.7776876 C7.94283282,36.8302405 7.9017494,36.8833393 7.85998579,36.9361652 C7.77713875,37.0411344 7.69469983,37.1461036 7.61362129,37.2521648 C7.56587201,37.3148188 7.51893896,37.3780187 7.47173383,37.4410821 C7.39854548,37.5389533 7.32590129,37.6370974 7.25420935,37.7360606 C7.20577989,37.8030826 7.15789457,37.870241 7.1101453,37.9376725 C7.04131016,38.0348611 6.97342728,38.1323228 6.90608856,38.2304669 C6.85929155,38.2988539 6.81249454,38.3672409 6.76624168,38.4361738 C6.69890295,38.536502 6.63292461,38.6373762 6.56721834,38.7386599 C6.52395831,38.8056818 6.48015413,38.8722943 6.43743826,38.9395892 C6.36724274,39.0502915 6.29881571,39.1615397 6.23052472,39.2731975 C6.19461074,39.3318929 6.15801656,39.3899058 6.12264673,39.4488742 C6.02225082,39.6160878 5.92389547,39.7841204 5.82771673,39.9535181 C5.81560936,39.9748122 5.80404615,39.9963794 5.79207482,40.0176735 C5.70528268,40.171783 5.62012301,40.3268481 5.53673182,40.4827321 C5.50299444,40.5457956 5.47061744,40.6092685 5.43756025,40.6726049 C5.37838379,40.7857642 5.31947941,40.8989234 5.26220749,41.0130382 C5.22588539,41.0855202 5.19051556,41.1582752 5.15487365,41.2310302 C5.1029072,41.3373644 5.05134886,41.4438351 5.00087883,41.5508518 C4.96496484,41.6268829 4.92986709,41.7030504 4.89476933,41.7794909 C4.84633986,41.8854156 4.79845455,41.9916133 4.7515215,42.0982205 C4.71778412,42.1747976 4.68404674,42.2513746 4.65112558,42.3283611 C4.60432857,42.4376983 4.5587559,42.5473086 4.51359134,42.6573283 C4.48311887,42.7317213 4.45223828,42.8057048 4.422446,42.8803708 C4.37456069,43.0004916 4.32830783,43.1214314 4.282191,43.2423713 C4.25756816,43.3072092 4.23212908,43.3715011 4.20805039,43.4363391 C4.14098374,43.6173393 4.07595766,43.799022 4.01338026,43.9815238 C4.00589818,44.0032274 3.99882422,44.025204 3.99147817,44.0470442 C3.9336621,44.2169878 3.87775055,44.3874775 3.82387957,44.5586497 C3.80292975,44.6249891 3.78347634,44.691738 3.76307067,44.7583505 C3.72538819,44.8821568 3.68784175,45.0062362 3.6520638,45.1305885 C3.63016171,45.206756 3.60934792,45.2831965 3.58812602,45.3596371 C3.55588506,45.4756628 3.52432428,45.5919616 3.49385181,45.7083969 C3.47317406,45.7881134 3.45304046,45.86783 3.4330429,45.947683 C3.40433892,46.0627533 3.37645117,46.1780966 3.34937964,46.2937129 C3.33060642,46.3735659 3.31210528,46.4532824 3.29428432,46.5334085 C3.26775695,46.6524373 3.24245391,46.7717391 3.21769503,46.8911774 C3.20191464,46.9674814 3.18586218,47.0435124 3.17076198,47.1199529 C3.14491479,47.2511303 3.1208361,47.3828537 3.09716552,47.5145771 C3.08546626,47.579415 3.07308682,47.64398 3.06193172,47.7089544 C3.02833038,47.9053792 2.9967696,48.1022136 2.96806562,48.2995939 C2.96724939,48.3053269 2.9665692,48.3111965 2.96575298,48.3169295 C2.93800126,48.5088498 2.91283426,48.7013161 2.88970783,48.8941919 C2.88195368,48.9593029 2.87542386,49.0246868 2.86821386,49.0899342 C2.8532497,49.2241146 2.83855761,49.3584315 2.82590609,49.4930215 C2.81869609,49.5695985 2.81257439,49.6461755 2.80604457,49.7227525 C2.79543362,49.8471048 2.78550286,49.9715937 2.77693248,50.096219 C2.77149096,50.1764816 2.7665936,50.2566076 2.76183228,50.3370067 C2.75462227,50.459448 2.74836453,50.5821623 2.74305906,50.7048766 C2.73952208,50.7852757 2.73625717,50.8656747 2.73353641,50.9462103 C2.72931924,51.0719276 2.72659848,51.197918 2.72442188,51.3239083 C2.7230615,51.4004853 2.72129301,51.4769258 2.72034074,51.5528204 C2.71925244,51.6912323 2.72006867,51.8299172 2.72142904,51.9686022 C2.72210923,52.0324846 2.72183716,52.096094 2.72292546,52.1599765 Z M2.93364805,54.9349037 C3.56690412,59.6350399 5.58869827,64.0423817 8.73919824,67.5878566 L24.5350942,51.7381886 L20.9107745,48.1013946 C16.0457898,52.5057333 9.7302338,54.9370877 3.18518199,54.9370877 C3.10138269,54.9370877 3.01758339,54.9357227 2.93364805,54.9349037 Z M23.3047681,75.1625657 C23.2299473,68.5127868 25.5986379,62.2647302 30.0814923,57.3031947 L26.4579888,53.6674926 L10.6631812,69.5160686 C14.1401719,72.6115 18.4627738,74.5423055 23.3047681,75.1625657 Z M41.887943,69.8383473 C42.0110573,69.7329686 42.1329472,69.6258153 42.2537487,69.5172971 L32.0054753,59.2341367 C27.9950802,63.7235155 25.901186,69.3706951 26.0252525,75.3690916 C26.0456582,75.3696376 26.0660639,75.3707296 26.0863335,75.3711391 C26.1581615,75.3726406 26.2294453,75.3729136 26.3010012,75.3738691 C26.4359507,75.3756437 26.5709002,75.3770087 26.7053056,75.3767357 C26.7846157,75.3764627 26.8635176,75.3753707 26.9425556,75.3744151 C27.0693428,75.3729136 27.1961301,75.3707296 27.3225092,75.3673171 C27.4039959,75.3651331 27.4852104,75.3625396 27.5665611,75.3595365 C27.6910357,75.3548955 27.8153742,75.349299 27.9394407,75.3428834 C28.0202472,75.3387884 28.1009176,75.3345569 28.181452,75.3296428 C28.3082393,75.3218623 28.4347545,75.3125802 28.5609976,75.3028887 C28.6371787,75.2970191 28.713496,75.2916956 28.7895411,75.2851435 C28.9287078,75.2731315 29.0674664,75.2590719 29.2060889,75.2447393 C29.2682582,75.2381872 29.3305635,75.2328637 29.3925968,75.2259021 C29.5894435,75.204062 29.7857461,75.1799013 29.9812324,75.1532837 C30.0364638,75.1457761 30.0914231,75.136767 30.1466544,75.12885 C30.2881338,75.1085114 30.4297492,75.0878997 30.5705483,75.0651041 C30.6528512,75.051727 30.7346099,75.0371214 30.8166407,75.0229253 C30.9299602,75.0034056 31.0432797,74.983886 31.1560551,74.9627284 C31.2450238,74.9460753 31.3335845,74.9283301 31.4222811,74.9107215 C31.5274384,74.8898369 31.6324596,74.8684062 31.7372087,74.8461566 C31.8287621,74.826637 31.9200435,74.8065713 32.0113249,74.7859597 C32.112401,74.763164 32.213069,74.7396859 32.313737,74.7155252 C32.4065148,74.6934121 32.4988845,74.6710259 32.5912541,74.6476842 C32.6901536,74.6227046 32.788509,74.5964964 32.8870004,74.5702882 C32.979234,74.5458546 33.0713316,74.5215574 33.1631572,74.4958952 C33.2627368,74.468049 33.3615003,74.4385648 33.4605358,74.4094901 C33.5499127,74.3831455 33.6395616,74.3577563 33.7286664,74.3303196 C33.8535491,74.2920993 33.9777517,74.2514221 34.1018181,74.2110178 C34.241393,74.1656995 34.3804236,74.1186067 34.5189101,74.0705583 C34.6160411,74.0368426 34.7131721,74.0036729 34.809759,73.9687287 C34.9026728,73.9351494 34.9946344,73.8997957 35.0871401,73.864988 C35.1771972,73.8311357 35.2671182,73.79742 35.356631,73.7623393 C35.4496809,73.7258935 35.5420506,73.6883558 35.6345563,73.6506815 C35.7227088,73.6147818 35.8107253,73.5787455 35.8984697,73.5417538 C35.9905673,73.5029875 36.0821208,73.4635388 36.1736742,73.423544 C36.2611465,73.3854602 36.3482107,73.3465575 36.435275,73.3072452 C36.525468,73.2665679 36.6155251,73.2254811 36.70531,73.1835754 C36.7934625,73.1424886 36.8810709,73.1001733 36.9688153,73.0577215 C37.0562876,73.0156792 37.1436239,72.9736369 37.2305521,72.9302297 C37.3226497,72.8845018 37.413795,72.8369995 37.5052124,72.7897702 C37.586427,72.7480009 37.6680497,72.7067776 37.7488562,72.6637799 C37.8805408,72.5936184 38.0112731,72.5216824 38.1415974,72.4489274 C38.2370959,72.3958285 38.3319143,72.3415012 38.4265966,72.2869008 C38.5337944,72.2250659 38.6408562,72.1636405 38.7471017,72.100031 C38.8208342,72.0560778 38.8936145,72.0104864 38.9668028,71.9655776 C39.061077,71.9078377 39.1550792,71.8500979 39.2485372,71.7908565 C39.3232219,71.7436271 39.3970905,71.6951693 39.4712311,71.6469845 C39.5626485,71.5876066 39.6537938,71.5278192 39.744395,71.4670763 C39.8174473,71.4180724 39.8900915,71.3685226 39.9625997,71.3185633 C40.0541532,71.2556363 40.1450264,71.1920269 40.2357637,71.1275985 C40.3056871,71.0780486 40.3754745,71.0283623 40.4448538,70.977857 C40.539128,70.9093335 40.6324499,70.8398545 40.7257719,70.7698296 C40.7901178,70.7216447 40.8545997,70.6735964 40.9185375,70.6245926 C41.0226064,70.5447395 41.125315,70.4635215 41.2281596,70.381894 C41.279854,70.3408072 41.3323646,70.3002664 41.3840589,70.2584971 C41.5373736,70.1345543 41.6897359,70.0085639 41.8403298,69.8802531 C41.8563823,69.8664665 41.8721626,69.8522704 41.887943,69.8383473 Z M50.1919639,52.1475549 C50.1931882,52.0731619 50.1948207,51.9989054 50.1950928,51.9231474 C50.1963171,51.7824149 50.1953649,51.641273 50.1940045,51.500131 C50.1934603,51.4384326 50.1937324,51.3771437 50.1926441,51.3154453 C50.192372,51.3005667 50.1915558,51.2855516 50.1912837,51.270673 C44.204123,51.1541012 38.395716,53.3097237 33.9301384,57.3052422 L44.1774596,67.5874471 C44.3026144,67.4467146 44.4266809,67.3050267 44.5481627,67.1615642 C44.5560529,67.1521457 44.563671,67.1424541 44.5716972,67.1330355 C44.6935871,66.9886175 44.8138446,66.8426981 44.9320614,66.6956866 C44.9732809,66.6443622 45.0135481,66.5920824 45.0544955,66.5403485 C45.1384308,66.4341508 45.2220941,66.3276801 45.3041249,66.2202539 C45.3503777,66.159511 45.3959504,66.098222 45.4417952,66.0369331 C45.516888,65.9366049 45.5913007,65.8361403 45.6646251,65.7348566 C45.7112861,65.6704281 45.7574029,65.6057267 45.8033837,65.5408888 C45.8746675,65.4401511 45.9451351,65.3391404 46.0147865,65.2374472 C46.0591348,65.1727458 46.1033471,65.1080444 46.1471513,65.0429334 C46.218027,64.9374182 46.2875423,64.8312205 46.3566495,64.7246133 C46.3965086,64.6629148 46.4369118,64.6013529 46.4763628,64.539245 C46.5518638,64.4203527 46.6257323,64.3005049 46.6990567,64.1803841 C46.7298013,64.1302883 46.761226,64.0804654 46.7915624,64.0299601 C46.9977958,63.6866603 47.1950506,63.3383099 47.383327,62.9855915 C47.4114868,62.9329022 47.4385583,62.8795303 47.4663101,62.826568 C47.5312001,62.7028981 47.59541,62.5788188 47.6581234,62.4540569 C47.6906364,62.389492 47.7220612,62.3246541 47.753894,62.2598161 C47.8102137,62.1448824 47.8659892,62.0298121 47.9205404,61.9139228 C47.9529174,61.8451263 47.9847502,61.7763299 48.016447,61.7073969 C48.0686855,61.5932821 48.1202439,61.4784849 48.170986,61.3635511 C48.2013224,61.2946181 48.2315228,61.2259582 48.2611791,61.1567522 C48.3121932,61.0377234 48.3619831,60.9181486 48.4110927,60.7983008 C48.4377562,60.7333263 48.4648277,60.6684884 48.4909469,60.6032409 C48.5442738,60.46947 48.5959681,60.3348801 48.6469823,60.2001537 C48.6664357,60.1486929 48.6867054,60.097505 48.7058867,60.0459077 C48.8450534,59.6706667 48.9748335,59.2916036 49.0949549,58.909674 C49.1120957,58.8552101 49.1281481,58.8003368 49.1448808,58.7455999 C49.1865083,58.6097815 49.2275918,58.4735536 49.2669067,58.3369161 C49.2863601,58.2689387 49.3049973,58.2008247 49.3239065,58.1327108 C49.3584602,58.0080854 49.3924696,57.8830506 49.4251187,57.7578792 C49.4440279,57.6849877 49.4625291,57.6120963 49.4807582,57.5390683 C49.5115027,57.4166269 49.541159,57.2937761 49.5698629,57.1707888 C49.5871397,57.0973513 49.6041445,57.0239138 49.620605,56.9502033 C49.6487649,56.8240764 49.6755643,56.6972671 49.7018196,56.5705942 C49.7161036,56.5008423 49.7309317,56.4313633 49.7446715,56.3616113 C49.7724233,56.2211519 49.7982704,56.0801464 49.8234374,55.939141 C49.8333682,55.8833121 49.8442512,55.8276197 49.8537739,55.7716543 C49.9213847,55.3759382 49.9792007,54.977765 50.0270861,54.5779538 C50.03416,54.5187124 50.0400097,54.459198 50.0466755,54.3998201 C50.0624559,54.2600431 50.0775561,54.1198567 50.0907518,53.9795337 C50.0975537,53.9063692 50.1034033,53.8332048 50.109661,53.7600403 C50.120544,53.6322754 50.1307469,53.504374 50.1395893,53.3763362 C50.1448948,53.2985306 50.1496561,53.2207251 50.1542814,53.1429196 C50.1617635,53.0177482 50.1680212,52.8924404 50.1734628,52.7671326 C50.1768637,52.689054 50.1801286,52.6109755 50.1827133,52.5327605 C50.1869305,52.4045861 50.1897873,52.2760022 50.1919639,52.1475549 Z M42.1428588,36.9360053 C42.1589914,37.0165239 42.1675541,37.0984072 42.1675541,37.1790498 C42.1675541,37.2596925 42.1589914,37.3414518 42.1428588,37.4208538 C42.1279672,37.5002558 42.1031479,37.5782931 42.0721237,37.6527325 C42.0412237,37.7284125 42.0028778,37.8002465 41.9593199,37.867242 C41.9134041,37.9354781 41.8614076,37.9986275 41.8043231,38.0556977 C41.7472386,38.1126438 41.6840734,38.1647514 41.6158203,38.209415 C41.5488081,38.2539546 41.476832,38.2924149 41.402374,38.3234313 C41.326675,38.3544477 41.2487423,38.3792609 41.1691963,38.3941487 C41.0897745,38.4102773 41.0079947,38.4189619 40.9273319,38.4189619 C40.8467932,38.4189619 40.7650134,38.4102773 40.6855916,38.3941487 C40.6060456,38.3792609 40.5279888,38.3544477 40.4524139,38.3234313 C40.3778318,38.292539 40.3059798,38.2540786 40.2389676,38.209415 C40.1707145,38.1647514 40.1075493,38.1127679 40.0504648,38.0556977 C39.9935044,37.9986275 39.9413838,37.9354781 39.895468,37.867242 C39.8521583,37.8002465 39.8136883,37.7284125 39.7826642,37.6527325 C39.75164,37.5782931 39.7266966,37.5002558 39.7119291,37.4208538 C39.6957965,37.3414518 39.6871097,37.2596925 39.6871097,37.1790498 C39.6871097,37.0984072 39.6957965,37.0166479 39.7119291,36.9360053 C39.7268207,36.8578439 39.75164,36.7798066 39.7826642,36.7041266 C39.8135642,36.6296872 39.8520342,36.5578532 39.895468,36.4908577 C39.9413838,36.4226216 39.9933803,36.3594722 40.0504648,36.302402 C40.1075493,36.2453318 40.1707145,36.1933483 40.2389676,36.147444 C40.3059798,36.1029045 40.3778318,36.0644441 40.4524139,36.0334277 C40.5279888,36.0024113 40.6060456,35.9788388 40.6855916,35.9627103 C40.8456763,35.9304532 41.0092357,35.9304532 41.1691963,35.9627103 C41.2487423,35.9788388 41.3267991,36.0024113 41.402374,36.0334277 C41.4769561,36.0643201 41.5488081,36.1027804 41.6158203,36.147444 C41.6840734,36.1933483 41.7473627,36.2453318 41.8043231,36.302402 C41.8612835,36.3594722 41.9134041,36.4226216 41.9593199,36.4908577 C42.0027537,36.5578532 42.0410996,36.6296872 42.0721237,36.7041266 C42.1031479,36.7798066 42.1279672,36.8578439 42.1428588,36.9360053 Z M67.7740043,22.0533391 C67.7901296,22.1338577 67.7988124,22.215741 67.7988124,22.2963837 C67.7988124,22.6225523 67.6660888,22.9423935 67.4356209,23.1730315 C67.3785621,23.2301017 67.3140609,23.2820852 67.2470789,23.3267489 C67.1789804,23.3712884 67.1071608,23.4097488 67.0327363,23.4407652 C66.9583118,23.4717816 66.8802901,23.4953541 66.800904,23.5114826 C66.7202775,23.5276111 66.639775,23.5362957 66.5591484,23.5362957 C66.4772815,23.5362957 66.396779,23.5276111 66.3161525,23.5114826 C66.2367663,23.4953541 66.1588687,23.4717816 66.0843202,23.4407652 C66.0098957,23.4098728 65.938076,23.3714125 65.871094,23.3267489 C65.8029956,23.2820852 65.7398588,23.2301017 65.682676,23.1730315 C65.4509677,22.9423935 65.3183681,22.6224282 65.3183681,22.2963837 C65.3183681,22.215741 65.3270509,22.1339818 65.3431762,22.0533391 C65.3593016,21.9739371 65.3827453,21.8958998 65.4137555,21.8214604 C65.4446416,21.747021 65.4832183,21.675187 65.527749,21.6069509 C65.5736441,21.5399555 65.6243768,21.4768061 65.682676,21.4184952 C65.7398588,21.3615491 65.8028715,21.3106822 65.871094,21.2647779 C65.938076,21.2202383 66.0098957,21.181778 66.0843202,21.1507616 C66.1587447,21.1197452 66.2367663,21.0961727 66.3161525,21.0800442 C66.4761651,21.0477871 66.6410154,21.0477871 66.800904,21.0800442 C66.8802901,21.0961727 66.9581878,21.1197452 67.0327363,21.1507616 C67.1070368,21.1816539 67.1788564,21.2201143 67.2470789,21.2647779 C67.3141849,21.3106822 67.3785621,21.361425 67.4356209,21.4184952 C67.4926797,21.4768061 67.5446528,21.5399555 67.5893075,21.6069509 C67.6338381,21.675187 67.6722908,21.747021 67.703301,21.8214604 C67.7343112,21.8958998 67.7577549,21.9739371 67.7740043,22.0533391 Z M64.9334074,23.9488352 C65.4466664,24.4988879 65.4466664,25.3908385 64.933539,25.9407502 L55.9871537,35.5260132 C55.7303927,35.80111 55.3940515,35.9385175 55.0575788,35.9385175 C54.7211061,35.9385175 54.384765,35.80111 54.128004,35.5260132 C53.6146135,34.9759606 53.6146135,34.0841509 54.128004,33.5340982 L63.0743892,23.9488352 C63.5879113,23.3987826 64.4200169,23.3987826 64.9334074,23.9488352 Z M68.2221889,9.88388025 C68.7601067,10.4217948 68.7601067,11.2939247 68.2221889,11.8317014 L53.6139256,26.4401534 C53.3448978,26.7090418 52.9923502,26.8435549 52.6399403,26.8435549 C52.2873926,26.8435549 51.9349828,26.7091796 51.665955,26.4401534 C51.1280373,25.9022389 51.1280373,25.030109 51.665955,24.4921944 L66.2740805,9.88388025 C66.8122739,9.34596573 67.6841334,9.34596573 68.2221889,9.88388025 Z M58.3121791,8.21959187 C58.8347414,8.74304879 58.8343395,9.59130369 58.3113754,10.1140904 L44.4525584,23.9711545 C44.1912103,24.2324138 43.8486849,24.3631105 43.5062935,24.3631105 C43.1635001,24.3631105 42.8207068,24.2322798 42.5592247,23.9704843 C42.0366625,23.4471614 42.0370643,22.5989065 42.5600285,22.0759858 L56.4188454,8.21892163 C56.9418096,7.69586685 57.7894829,7.69613495 58.3121791,8.21959187 Z" id="Combined-Shape" fill="url(#linearGradient-1)"></path>
                        <g id="Swishhh">
                            <use fill="#FFFFFF" xlink:href="#path-2"></use>
                            <use fill="url(#linearGradient-1)" xlink:href="#path-2"></use>
                        </g>
                    </g>
                </g>
            </g>
        </g>
    </g>
</svg>